<?xml version="1.0" encoding="iso-8859-1"?>
<!-- Uploaded to: SVG Repo, www.svgrepo.com, Generator: SVG Repo Mixer Tools -->
<svg fill="#000000" height="800px" width="800px" version="1.1" id="Layer_1" xmlns="http://www.w3.org/2000/svg" xmlns:xlink="http://www.w3.org/1999/xlink" 
	 viewBox="0 0 512 512" xml:space="preserve">
<g>
	<g>
		<path d="M466.426,311.065c0-10.934-4.843-20.821-12.468-27.532c7.626-6.712,12.468-16.598,12.468-27.532
			c0-20.179-16.413-36.768-36.596-36.768H73.021c-20.183,0-36.596,16.589-36.596,36.768c0,10.934,4.843,20.821,12.47,27.533
			c-7.628,6.712-12.47,16.557-12.47,27.49c0,10.933,4.843,20.756,12.47,27.468c-7.628,6.711-12.47,16.524-12.47,27.457
			c0,10.934,4.843,20.742,12.47,27.452c-7.628,6.712-12.47,16.517-12.47,27.45c0,10.932,4.843,20.736,12.47,27.448
			c-7.628,6.711-12.47,16.342-12.47,27.275c0,20.179,16.413,36.425,36.596,36.425h118.936h109.788h9.149H429.83
			c20.183,0,36.596-16.245,36.596-36.424c0-10.934-4.843-20.649-12.468-27.361c7.626-6.712,12.468-16.471,12.468-27.403
			c0-10.933-4.843-20.715-12.468-27.426c7.626-6.712,12.468-16.503,12.468-27.437c0-10.933-4.843-20.729-12.468-27.441
			C461.583,331.797,466.426,321.997,466.426,311.065z M73.021,494.046c-10.087,0-18.298-8.206-18.298-18.298
			c0-10.091,8.211-18.298,18.298-18.298c10.087,0,18.298,8.206,18.298,18.298C91.319,485.84,83.108,494.046,73.021,494.046z
			 M73.021,439.152c-10.087,0-18.298-8.206-18.298-18.298c0-10.092,8.211-18.298,18.298-18.298c10.087,0,18.298,8.206,18.298,18.298
			C91.319,430.946,83.108,439.152,73.021,439.152z M73.021,384.259c-10.087,0-18.298-8.206-18.298-18.298
			c0-10.092,8.211-18.298,18.298-18.298c10.087,0,18.298,8.206,18.298,18.298C91.319,376.052,83.108,384.259,73.021,384.259z
			 M73.021,329.365c-10.087,0-18.298-8.206-18.298-18.298c0-10.091,8.211-18.298,18.298-18.298c10.087,0,18.298,8.206,18.298,18.298
			C91.319,321.158,83.108,329.365,73.021,329.365z M73.021,274.471c-10.087,0-18.298-8.206-18.298-18.298
			c0-10.092,8.211-18.298,18.298-18.298c10.087,0,18.298,8.206,18.298,18.298C91.319,266.265,83.108,274.471,73.021,274.471z
			 M181.665,493.702h-76.998c3.127-4.574,4.95-11.629,4.95-18.298s-1.823-11.436-4.95-18.298h76.998V493.702z M181.665,438.808
			h-76.998c3.127-4.575,4.95-11.63,4.95-18.298c0-6.668-1.823-11.436-4.95-18.298h76.998V438.808z M181.665,383.915h-76.998
			c3.127-4.574,4.95-11.629,4.95-18.298c0-6.668-1.823-11.436-4.95-18.298h76.998V383.915z M181.665,329.021h-76.998
			c3.127-4.574,4.95-11.629,4.95-18.298s-1.823-11.436-4.95-18.298h76.998V329.021z M300.601,493.702H199.963V292.425h100.639
			V493.702z M398.184,493.702h-79.285v-36.596h79.285c-3.127,6.862-4.95,11.629-4.95,18.298S395.057,489.128,398.184,493.702z
			 M318.899,438.808v-36.596h79.285c-3.127,6.862-4.95,11.63-4.95,18.298c0,6.668,1.823,13.723,4.95,18.298H318.899z
			 M318.899,383.915v-36.596h79.285c-3.127,6.862-4.95,11.63-4.95,18.298c0,6.668,1.823,13.723,4.95,18.298H318.899z
			 M318.899,329.021v-36.596h79.285c-3.127,6.862-4.95,11.629-4.95,18.298s1.823,13.723,4.95,18.298H318.899z M398.184,274.127
			h-87.29H191.957h-87.29c3.127-4.574,4.95-11.63,4.95-18.298c0-6.668-1.823-11.436-4.95-18.298h293.517
			c-3.127,6.862-4.95,11.629-4.95,18.298C393.234,262.498,395.057,269.553,398.184,274.127z M429.83,494.046
			c-10.087,0-18.298-8.206-18.298-18.298c0-10.091,8.211-18.298,18.298-18.298c10.087,0,18.298,8.206,18.298,18.298
			S439.917,494.046,429.83,494.046z M429.83,439.152c-10.087,0-18.298-8.206-18.298-18.298c0-10.092,8.211-18.298,18.298-18.298
			c10.087,0,18.298,8.206,18.298,18.298C448.128,430.946,439.917,439.152,429.83,439.152z M429.83,384.259
			c-10.087,0-18.298-8.206-18.298-18.298c0-10.092,8.211-18.298,18.298-18.298c10.087,0,18.298,8.206,18.298,18.298
			C448.128,376.052,439.917,384.259,429.83,384.259z M429.83,329.365c-10.087,0-18.298-8.206-18.298-18.298
			c0-10.091,8.211-18.298,18.298-18.298c10.087,0,18.298,8.206,18.298,18.298S439.917,329.365,429.83,329.365z M429.83,274.471
			c-10.087,0-18.298-8.206-18.298-18.298c0-10.092,8.211-18.298,18.298-18.298c10.087,0,18.298,8.206,18.298,18.298
			C448.128,266.265,439.917,274.471,429.83,274.471z"/>
	</g>
</g>
<g>
	<g>
		<path d="M490.764,203.562L262.04,2.285c-3.449-3.047-8.631-3.047-12.079,0L21.236,203.562c-3.797,3.337-4.163,9.118-0.831,12.911
			c3.35,3.806,9.14,4.159,12.91,0.822l39.066-34.55c0.215,0.016,0.42-0.107,0.639-0.107h365.958c0.219,0,0.424,0.123,0.639,0.107
			l39.066,34.464c1.733,1.532,3.886,2.326,6.04,2.326c2.537,0,5.057-1.029,6.871-3.083
			C494.927,212.659,494.561,206.899,490.764,203.562z M256,20.994l38.135,33.558h-76.27L256,20.994z M197.8,72.21
			c1.027,0.4,2.135,0.64,3.306,0.64h109.787c1.17,0,2.281-0.24,3.308-0.64l42.316,37.236H155.484L197.8,72.21z M93.103,164.34
			l41.88-36.855c0.672,0.156,1.36,0.259,2.08,0.259h237.873c0.719,0,1.409-0.103,2.08-0.259l41.883,36.855H93.103z"/>
	</g>
</g>
</svg>